<!-- SayAs TTS Icon - Pink Heart Design -->
<svg xmlns="http://www.w3.org/2000/svg" viewBox="0 0 512 512">
  <defs>
    <linearGradient id="heartGradient" x1="0%" y1="0%" x2="100%" y2="100%">
      <stop offset="0%" style="stop-color:#ec407a;stop-opacity:1" />
      <stop offset="100%" style="stop-color:#d81b60;stop-opacity:1" />
    </linearGradient>
    <filter id="shadow">
      <feDropShadow dx="0" dy="4" stdDeviation="8" flood-opacity="0.3"/>
    </filter>
  </defs>
  
  <!-- Background Circle -->
  <circle cx="256" cy="256" r="240" fill="#fce4ec"/>
  
  <!-- Heart Shape -->
  <path d="M256 440
           C256 440 64 288 64 176
           C64 105.6 121.6 48 192 48
           C230.4 48 265.6 65.6 288 96
           C310.4 65.6 345.6 48 384 48
           C454.4 48 512 105.6 512 176
           C512 288 320 440 320 440
           C307.2 451.2 291.2 456 275.2 456
           C262.4 456 249.6 452.8 238.4 448
           C227.2 452.8 214.4 456 201.6 456
           C185.6 456 169.6 451.2 156.8 440
           C153.6 438.4 256 440 256 440Z" 
        fill="url(#heartGradient)" 
        filter="url(#shadow)"/>
  
  <!-- Sparkle -->
  <path d="M380 120 L390 100 L400 120 L420 130 L400 140 L390 160 L380 140 L360 130 Z" fill="#ffd740"/>
  <path d="M120 350 L127 336 L134 350 L148 357 L134 364 L127 378 L120 364 L106 357 Z" fill="#ffd740"/>
  
  <!-- Sound waves -->
  <path d="M180 280 Q160 256 180 232" stroke="#f48fb1" stroke-width="8" fill="none" stroke-linecap="round"/>
  <path d="M160 300 Q130 256 160 212" stroke="#f48fb1" stroke-width="8" fill="none" stroke-linecap="round"/>
  <path d="M332 280 Q352 256 332 232" stroke="#f48fb1" stroke-width="8" fill="none" stroke-linecap="round"/>
  <path d="M352 300 Q382 256 352 212" stroke="#f48fb1" stroke-width="8" fill="none" stroke-linecap="round"/>
</svg>
